<?xml version="1.0" encoding="UTF-8"?>
<svg width="752pt" height="752pt" version="1.1" viewBox="0 0 752 752" xmlns="http://www.w3.org/2000/svg">
 <defs>
  <clipPath id="a">
   <path d="m139.21 253h473.58v195h-473.58z"/>
  </clipPath>
 </defs>
 <g clip-path="url(#a)">
  <path d="m612.79 411.8v-0.37891c-0.12891-1.6055-0.43359-3.1953-0.90234-4.7344-6.1562-28.418-27.512-54.086-55.93-61.379-14.02-3.4023-28.262-5.8086-42.621-7.1992-10.953-0.55859-20.992-6.2891-27.043-15.438-25.242-36.086-60.477-56.828-103.67-64.645h0.003906c-40.504-6.5586-81.809-6.4609-122.28 0.28516-23.41 3.1367-44.16 16.652-56.496 36.797-5.1602 8.0039-9.1875 16.859-14.777 24.531-5.2539 8.3711-11.809 15.855-19.414 22.164-13.527 8.7422-22.953 22.574-26.145 38.359-1.9414 10.469-3.2188 21.027-4.3086 31.637h0.23828c-0.070313 1.0703-0.070313 2.1484 0 3.2188v23.68c0.12891 5.1406 4.332 9.2383 9.4688 9.2344h35.52c1.9727-18.945 13.238-35.668 30.051-44.613 16.816-8.9492 36.98-8.9492 53.793 0 16.816 8.9453 28.082 25.668 30.055 44.613h169.4v-2.1328 0.003906c0.57812-20.074 11.617-38.379 29.105-48.254 17.484-9.8711 38.863-9.8711 56.348 0 17.488 9.875 28.527 28.18 29.105 48.254v2.1328h21.453v-0.003906c5.1406 0.003906 9.3438-4.0938 9.4727-9.2344v-25.668c0.023438-0.41016 0.023438-0.82031 0-1.2305zm-286.99-63.695c-28.414 0-56.07 0.71094-83.684-0.33203-13.59-0.47266-16.766-7.6719-11.746-20.555 16.672-42.621 43.57-56.547 95.426-48.59zm122.23 0c-30.832 0.47266-61.566 0-94.195 0v-68.766c35.566-6.582 88.938 20.836 104.19 53.324 4.6445 10.184 1.9453 15.488-9.9922 15.676z"/>
 </g>
 <path d="m240.89 409.15c-11.953 0.023437-23.402 4.7969-31.832 13.27-8.4297 8.4688-13.145 19.945-13.113 31.895 0.035157 11.949 4.8164 23.398 13.293 31.82 8.4766 8.4219 19.953 13.133 31.902 13.09 11.953-0.042968 23.395-4.832 31.812-13.312 8.418-8.4844 13.117-19.965 13.066-31.914-0.035156-11.934-4.8125-23.359-13.277-31.77-8.4609-8.4141-19.922-13.117-31.852-13.078zm0 65.023c-5.3164 0-10.414-2.1133-14.172-5.875-3.7578-3.7578-5.8672-8.8594-5.8633-14.176 0.003906-5.3125 2.1211-10.41 5.8867-14.164 3.7617-3.7539 8.8633-5.8594 14.18-5.8516 5.3125 0.007813 10.41 2.1289 14.16 5.8945s5.8516 8.8711 5.8398 14.188c-0.050781 5.2734-2.1836 10.316-5.9375 14.023-3.7539 3.7109-8.8203 5.7852-14.094 5.7695z"/>
 <path d="m570.17 445.9c0-11.949-4.7461-23.406-13.195-31.852-8.4492-8.4492-19.91-13.191-31.855-13.188-11.949 0.003907-23.406 4.7578-31.848 13.211-8.4453 8.4492-13.184 19.91-13.176 31.859 0.007812 11.949 4.7656 23.402 13.219 31.844 8.457 8.4414 19.918 13.176 31.867 13.164 11.941 0 23.391-4.75 31.828-13.195 8.4414-8.4492 13.176-19.902 13.16-31.844zm-65.023 0h0.003907c0.011718-5.3242 2.1445-10.422 5.9219-14.172 3.7812-3.75 8.8984-5.8398 14.219-5.8125 5.3242 0.03125 10.418 2.1758 14.156 5.9688 3.7383 3.793 5.8125 8.9141 5.7656 14.238-0.046876 5.3242-2.2109 10.41-6.0117 14.137-3.8047 3.7227-8.9336 5.7812-14.258 5.7188-5.3164-0.011719-10.41-2.1328-14.168-5.8984-3.7539-3.7617-5.8633-8.8633-5.8633-14.18z"/>
</svg>
