<?xml version="1.0" encoding="UTF-8"?>
<svg width="752pt" height="752pt" version="1.1" viewBox="0 0 752 752" xmlns="http://www.w3.org/2000/svg">
 <path d="m483.34 491.57c2.9805-23.02 12.219-53.27 0.99609-91.883-11.195-38.516-38.898-87.344-122.54-108.54 2.3672-6.0273 12.516-18.961 6.2617-41.25l-0.46484-1.957c3.9297-31.617 17.266-37.812 12.418-40.312-17.75-9.1445-43.738 15.207-43.738 15.207l0.046875 0.042968c-6.1289-1.5391-12.82-2.3555-19.91-2.4023-4.2305-0.027343-8.3203 0.24609-12.273 0.76563-6.418-9.1484-22.277-30.109-29.801-25.441-5.1562 3.2031-7.7852 33.129-7.25 46.547-12.66 26.965-2.9961 45.367 2.0977 53.703-1.7656 9.7305-3.6172 21.543-4.5625 35.883-1.5078 22.973 1.6797 45.828 30.418 99.566 0.96094 1.8008 1.8672 3.5703 2.7617 5.3438 0.0625 0.44141 4.6992 32.297 6.0039 58.297-3.3516 0.83203-28.254 7.5117-22.055 21.57 3.2148 7.3008 12.285 8.1133 20.945 6.9531-0.41797 1.5117-0.69922 2.9844-1.5547 3.5078-10.824 6.7266-13.34 27.297 19.664 22.41 3.7109-0.55078 6.1797-2.9141 9.0312-6.7734 37.438 14.316 104.77-2.1094 128.95-11.508 29.484-11.469 24.57-39.758 24.57-39.758l-0.007812 0.011719zm-141.6 25.516c0.71875-2.5039 1.207-4.4453 1.8438-7.1094 4.2773 3.9766 8.4492 7.2539 12.441 9.6953-5.8477-0.11328-10.535-1.3633-14.285-2.5859z"/>
</svg>
