<?xml version="1.0" encoding="UTF-8"?>
<svg width="752pt" height="752pt" version="1.1" viewBox="0 0 752 752" xmlns="http://www.w3.org/2000/svg">
 <path d="m566.86 352.8-143.97-29.836h-16.102l-9.4727-124.08-35.52-20.363 6.6289 58.25-8.5234 0.94531-8.9961-62.512-38.359-12.312 14.68 77.668-8.9961 0.94531c-9.4727-44.043-16.578-78.613-16.578-78.613h-32.676l20.836 81.457-10.891 0.94531-21.312-79.562-31.258 12.312 21.312 70.09-7.5781 0.94531-21.309-67.246-30.309 33.152 52.094 133.55-19.418-5.2109-15.156 1.4219 1.8945 18.469 43.098 11.367 27.941 71.512-93.77 71.035v22.258l19.418 7.5781 86.191-62.039v97.086s8.9961 6.6289 11.367 6.6289c2.3672 0 11.367-2.8398 11.367-2.8398l1.8945-42.621 193.7-19.891-0.003906 37.41s8.9961 6.6289 11.367 6.6289c2.3672 0 11.367-2.8398 11.367-2.8398l8.0469-197.96 26.52-2.8398 0.003906-10.895zm-293.62 0.94531 6.6289-0.47266 2.3672 7.1055-7.1055-1.8945zm33.625-3.7891 9.4727-0.94531 5.6836 22.258-9.9453-2.8398zm28.414 74.355-8.5234 0.94531-5.6836-21.785 0.94531-18.469 3.3164-0.47266zm53.988-5.6836-3.7891 0.47266-10.891-76.246 5.6836-0.47266zm-27.469 2.8398-6.1562 0.47266c-1.8945-8.9961-8.0508-39.309-15.629-75.773l7.1055-0.94531zm147.29-56.828v41.676l-95.664 9.9453-5.6836-72.457zm-139.71-118.87 9.9453 87.141-6.1562 0.47266-12.312-87.141zm-40.254 4.2617 16.574 86.191-7.5781 0.47656c-5.6836-27.469-12.312-58.25-17.996-85.719zm-36.941 3.7891 21.785 85.246-9.4727 0.94531-23.203-84.77zm-41.199 4.7383 25.574 84.297-6.6289 0.47266-26.523-84.297zm38.832 126.92 0.94531 3.3164v19.418l-8.0508-24.625zm26.996 128.34 1.8945-40.727 119.82-12.312-45.938 34.57v10.418zm124.08-12.785 68.195-48.777v41.676z"/>
</svg>
