<?xml version="1.0" encoding="UTF-8"?>
<svg width="752pt" height="752pt" version="1.1" viewBox="0 0 752 752" xmlns="http://www.w3.org/2000/svg">
 <defs>
  <clipPath id="a">
   <path d="m139.21 204h473.58v344h-473.58z"/>
  </clipPath>
 </defs>
 <g clip-path="url(#a)">
  <path d="m605.93 252.34c-1.5781-0.78906-13.195-3.5469-22.84-5.5078-9.6484-1.9648-8.8594-7.6875-10.633-10.84-1.7695-3.1523-4.457-7.8672-10.758-9.7148-3.5-1.0078-9.8594-2.8086-17.23-3.7852-0.50391-0.38281-1.0664-0.73047-1.6758-0.98828-2.4688-1.0703-3.8984-2.6055-10.996-2.5391-6.4805 0.058594-13.047 4.7578-14.344 6.7656 0 0 0.0625 0.050781 0.070313 0.058594-9.4062 5.4102-15.594 15.453-18.703 18.875-3.9414 4.3242-14.965 18.113-25.988 27.566-11.023 9.4375-16.547 16.137-25.996 20.078-9.4336 3.9453-19.289 3.1523-28.352 7.1719-9.0508 4.0195-22.441 5.4375-40.945 3.0742-18.508-2.3711-50.801-4.3438-68.523-5.9062-17.73-1.5859-40.945 5.5547-42.141 5.9062-3.2188 0.93359-4.9883 0.125-12.605-2.4961-7.6094-2.6328-40.164-11.555-57.758-19.164-17.586-7.6094-29.398-29.926-37.801-49.363-4.375-10.094-9.2344-16.855-12.891-21.023-3.3906-3.8555-4.8359-6.0586-5.7539-5.4883-0.91797 0.5625-1.1367 1.1406-0.38672 7.2266 0.58203 4.7031 0.10547 7.1562 1.9414 20.902 4.1992 31.512 24.961 53.004 37.043 62.18 12.082 9.1953 63.02 25.75 65.375 27.051 2.3633 1.3125 2.6289 4.1992 2.1016 8.1445-0.52734 3.9336-2.1016 5.7734-4.1992 7.6133-2.1016 1.8281-6.0352 15.223-6.8242 20.211-0.78516 4.9727 1.0508 22.57 3.6758 26.066 2.6289 3.5195 4.1992 15.156 5.5117 21.969 1.3125 6.8164 2.8906 20.477 0.26953 23.621-2.6328 3.1484-2.1016 4.9961-4.4609 7.0977-2.3672 2.1016-6.1055 16.867-7.2344 22.754-1.1445 5.8789-1.168 8.2148-1.168 8.2148s-2.3633 3.6797-4.7266 5.7773c-2.3594 2.1016-1.5781 3.6758-1.3125 5.2539 0.26562 1.5742-0.25391 8.668 0 11.02 0.26562 2.3633 2.6289 7.8711 2.8945 11.02 0.26172 3.1484 3.9336 22.316 4.4609 24.691 0.51953 2.3594 2.8945 7.8672 2.8945 10.23 0 2.3555 4.457 6.5586 7.8789 8.9336 3.4102 2.3633 8.3906 2.3633 13.383 1.5664 4.9883-0.79688 3.9414-2.3594 6.3086-3.6602 2.3633-1.3242 2.6289-2.9023 1.832-5.2578-0.78516-2.3672-7.0859-8.1445-10.504-8.3984-3.4102-0.26562-7.1953-2.6328-8.4453-4.6836-1.1953-1.9805 0.33203-11.594 0.33203-11.594s4.1758 1.5664 7.8516 1.0469 3.9414-2.3633 6.0391-2.6289c2.0977-0.26562 2.6289-2.3555 3.1484-4.7188 0.52734-2.3711-0.78516-5.2539-4.457-6.5781-3.6758-1.3086-8.6719-1.5625-11.301-3.1445-2.6289-1.5742-0.51953-8.9219 0-11.543 0.51953-2.6328 8.4023-17.078 13.129-21.805 4.7305-4.7344 11.031-11.812 14.703-18.906 3.6758-7.0898 7.6094-8.3984 13.914-23.105 6.3047-14.703 11.816-30.188 13.383-32.027 1.5781-1.8477 17.859 2.1016 30.988 2.6367 13.121 0.51172 34.391 7.6055 58.285 16.531 23.887 8.9414 51.461 10.234 54.344 11.031 2.8945 0.77734 2.1641 0.5625 3.1133 2.7383 0.91797 2.0977 0.29688 9.0703-0.21875 11.949-0.53125 2.8906 1.5664 6.0391 1.3125 9.4492-0.26562 3.4336 2.1016 30.723 2.8906 41.504 0.78516 10.754 0.51172 22.832 3.1523 25.449 2.6133 2.6328 4.1875 9.7305 5.5117 13.133 1.3008 3.4102 1.832 9.7148 9.707 14.961 7.8789 5.2539 14.191 1.8477 21.016 0.79688 6.8203-1.0508 6.8086-3.9414 3.9219-9.1914-2.8828-5.2461-10.234-7.0938-13.121-8.3984-2.8906-1.3086-5.5117-9.4531-5.5117-9.4531s5.5117 0.53125 7.875 0c2.3594-0.51953 3.1484-2.3594 4.9922-1.5742 1.8359 0.79688 3.9297-1.5742 4.7266-3.3984 0.78125-1.8516 0-5.2539-1.0547-7.1055-1.0508-1.8359-5.5117-4.9922-7.875-5.5078-2.3555-0.53125-6.8242-0.78906-8.1367-2.3711-1.3125-1.5664-3.4297-9.1797-3.6797-11.277-0.26562-2.1016 0.78516-8.9414 1.3086-13.652 0.52734-4.7344 2.3711-27.051 3.4258-32.824 1.0469-5.7695 3.6719-11.551 5.2461-15.492 1.5742-3.9297 4.9805-8.9219 7.0859-10.488 2.1016-1.5859 8.9336-9.9844 12.34-17.078 3.4102-7.0742 6.5703-14.691 7.6094-16.012 1.0469-1.3164 4.1992-4.7266 5.7734-10.23 1.5742-5.5273-0.58594-12.742 0.38672-15.098 0.99609-2.3633 5.1289-6.3047 8.4766-10.242 3.3438-3.9297 5.125-8.0703 7.6758-12.207 2.5508-4.125 5.1133-14.176 5.7109-16.328 0.58594-2.1719 7.0859-11.234 10.051-16.746 2.9414-5.5078 11.012-7.6758 17.113-5.5078 6.1016 2.1641 13.203 1.1875 14.77 0 1.5781-1.1875 6.4453-2.7227 7.8633-2.5391 2.2812 0.29688 3.75 0.18359 7.6875-2 3.9336-2.1602 9.2578-10.227 11.023-13.578 1.7695-3.3477 0.98438-6.6953 0.98438-6.6953s1.4648 0.85547 2.7656-5.0039c1.1758-5.3711-5.1484-6.6055-6.7227-7.3984z"/>
 </g>
</svg>
