<?xml version="1.0" encoding="UTF-8"?>
<svg width="752pt" height="752pt" version="1.1" viewBox="0 0 752 752" xmlns="http://www.w3.org/2000/svg">
 <g>
  <path d="m487.77 481.14-7.5781-0.94531 0.94531 7.5781c0 0.47266 2.8398 29.363-32.676 63.461l8.0508 8.5234c29.836-28.887 35.52-54.934 35.992-66.773 11.84-0.94531 37.887-6.1562 66.773-35.992l-8.5234-8.0508c-34.094 34.566-62.984 32.199-62.984 32.199z"/>
  <path d="m287.91 317.28c8.9961-2.3672 16.574-9.9453 18.941-18.941 0.47266-1.8945 0.47266-3.7891 0.47266-5.2109 1.8945 0 3.7891 0 5.2109-0.47266 8.9961-2.3672 16.574-9.9453 18.941-18.941 0.47266-1.8945 0.47266-3.7891 0.47266-5.2109 1.8945 0 3.7891 0 5.2109-0.47266 8.9961-2.3672 16.574-9.9453 18.941-18.941 1.8945-7.5781-0.47266-15.156-6.1562-20.363l-8.0508 8.5234c2.8398 2.3672 3.7891 5.6836 2.8398 8.9961-1.4219 4.7344-5.6836 8.9961-10.418 10.418-3.3164 0.94531-6.1562 0-8.5234-2.3672-0.47266-0.47266-0.47266-0.47266-0.94531-0.94531l-8.5234 8.5234c0.47266 0.47266 0.47266 0.47266 0.94531 0.94531 2.3672 2.3672 2.8398 5.2109 2.3672 8.5234-1.4219 4.7344-5.6836 8.9961-10.418 10.418-3.3164 0.94531-6.1562 0-8.5234-2.3672-0.47266-0.47266-0.47266-0.47266-0.94531-0.94531l-8.5234 8.5234 0.94531 0.94531c2.3672 2.3672 2.8398 5.2109 2.3672 8.5234-1.4219 4.7344-5.6836 8.9961-10.418 10.418-3.3164 0.94531-6.6289 0-8.9961-2.8398l-8.5234 8.0508c4.2617 4.2617 9.4727 6.6289 15.156 6.6289 2.8398-0.47266 4.7344-0.94531 6.1523-1.418z"/>
  <path d="m318.22 335.75c0.47266-1.8945 0.47266-3.7891 0.47266-5.2109 1.8945 0 3.7891 0 5.2109-0.47266 8.9961-2.3672 16.574-9.9453 18.941-18.941 0.47266-1.8945 0.47266-3.7891 0.47266-5.2109 1.8945 0 3.7891 0 5.2109-0.47266 8.9961-2.3672 16.574-9.9453 18.941-18.941 0.47266-1.8945 0.47266-3.7891 0.47266-5.2109 2.3672 0 4.2617-0.47266 6.6289-0.94531 8.9961-2.8398 16.574-11.367 17.996-20.836l-11.84-1.8945c-0.94531 4.7344-5.2109 9.4727-9.9453 10.891-3.3164 0.94531-6.1562 0.47266-8.9961-1.8945-0.47266-0.47266-0.47266-0.47266-0.94531-0.94531l-8.5234 8.5234c0.47266 0.47266 0.47266 0.47266 0.94531 0.94531 2.3672 2.3672 2.8398 5.2109 1.8945 8.5234-1.4219 4.7344-5.6836 8.9961-10.418 10.418-3.3164 0.94531-6.1562 0-8.5234-2.3672-0.47266-0.47266-0.47266-0.47266-0.94531-0.94531l-8.5234 8.5234 0.94531 0.94531c2.3672 2.3672 2.8398 5.2109 2.3672 8.5234-1.4219 4.7344-5.6836 8.9961-10.418 10.418-3.3164 0.94531-6.1562 0-8.5234-2.3672-0.47266-0.47266-0.47266-0.47266-0.94531-0.94531l-8.5234 8.5234c0.47266 0.47266 0.47266 0.47266 0.94531 0.94531 2.3672 2.3672 2.8398 5.2109 2.3672 8.5234-1.4219 4.7344-5.6836 8.9961-10.418 10.418-3.3164 0.94531-6.1562 0-8.9961-2.8398l-0.94531 0.94531-11.84-11.84-8.5234 8.5234 45.938 45.938-19.891 19.891-35.52-54.461-9.9453 6.6289 43.57 66.301 38.359-38.359-29.363-29.363c10.891-3.7812 18.465-11.355 20.832-19.883z"/>
  <path d="m440.41 402.05c6.1562 0 12.312-2.8398 17.523-8.0508l-8.5234-8.5234c-2.8398 2.8398-6.1562 4.2617-8.9961 4.2617-1.8945 0-3.7891-0.94531-5.2109-2.3672-0.47266-0.47266-0.47266-0.47266-0.94531-0.94531l-8.5234 8.5234c0.47266 0.47266 0.47266 0.94531 0.94531 0.94531 1.8945 2.3672 2.8398 4.7344 1.8945 8.0508-1.4219 4.7344-5.6836 9.4727-10.418 10.418-2.8398 0.94531-5.6836 0-8.0508-1.8945-0.47266-0.47266-0.47266-0.47266-0.94531-0.94531l-8.5234 8.5234 0.94531 0.94531c1.8945 2.3672 2.8398 4.7344 1.8945 8.0508-1.4219 4.7344-5.6836 9.4727-10.418 10.418-3.3164 0.94531-6.1562 0-8.5234-2.8398l-8.5234 8.0508c4.2617 4.2617 9.4727 6.6289 15.156 6.6289 1.8945 0 3.3164 0 5.2109-0.47266 8.9961-2.3672 16.574-9.9453 18.941-18.941 0.47266-1.8945 0.47266-3.3164 0.47266-5.2109 1.8945 0 3.3164-0.47266 5.2109-0.47266 8.9961-2.3672 16.574-9.9453 18.941-18.941-0.011718-1.8945 0.46484-3.7891 0.46484-5.2109z"/>
  <path d="m307.8 509.08c10.891-6.6289 20.836-12.312 41.203-12.312 20.363 0 30.781 6.1562 41.203 12.312 11.84 7.1055 23.68 14.207 47.359 14.207v-11.84c-20.363 0-30.781-6.1562-41.203-12.312-11.84-7.1055-23.68-14.207-47.359-14.207-23.68 0-35.992 7.1055-47.359 14.207-10.891 6.6289-20.836 12.312-41.203 12.312-20.363 0-30.781-6.1562-41.203-12.312-11.84-7.1055-23.68-14.207-47.359-14.207v11.84c20.363 0 30.781 6.1562 41.203 12.312 11.84 7.1055 23.68 14.207 47.359 14.207 23.68 0 35.52-7.1055 47.359-14.207z"/>
  <path d="m349.01 512.87c-23.68 0-35.992 7.1055-47.359 14.207-10.891 6.6289-20.836 12.312-41.203 12.312-20.363 0-30.781-6.1562-41.203-12.312-11.84-7.1055-23.68-14.207-47.359-14.207v11.84c20.363 0 30.781 6.1562 41.203 12.312 11.84 7.1055 23.68 14.207 47.359 14.207 23.68 0 35.992-7.1055 47.359-14.207 10.891-6.6289 20.836-12.312 41.203-12.312 20.363 0 30.781 6.1562 41.203 12.312 8.0508 4.7344 16.102 9.9453 28.414 12.312l2.3672-11.367c-10.418-2.3672-17.523-6.6289-25.102-10.891-10.891-6.6289-22.73-14.207-46.883-14.207z"/>
  <path d="m349.01 541.28c-23.68 0-35.992 7.1055-47.359 14.207-10.891 6.6289-20.836 12.312-41.203 12.312-20.363 0-30.781-6.1562-41.203-12.312-11.84-7.1055-23.68-14.207-47.359-14.207v11.84c20.363 0 30.781 6.1562 41.203 12.312 11.84 7.1055 23.68 14.207 47.359 14.207 23.68 0 35.992-7.1055 47.359-14.207 10.891-6.6289 20.836-12.312 41.203-12.312 20.363 0 30.781 6.1562 41.203 12.312 3.7891 2.3672 7.1055 4.2617 11.367 6.1562l5.2109-10.418c-3.7891-1.8945-7.1055-3.7891-10.418-5.6836-11.371-6.6289-23.211-14.207-47.363-14.207z"/>
  <path d="m245.29 214.98c0.94531-0.94531 1.4219-1.8945 1.4219-2.8398 0-0.94531-0.47266-1.8945-1.4219-2.8398-0.94531-0.94531-1.8945-1.4219-2.8398-1.4219s-1.8945 0.47266-2.8398 0.94531c-0.94531 0.94531-1.4219 1.8945-1.4219 2.8398 0 0.94531 0.47266 1.8945 1.4219 2.8398 1.418 1.8984 4.2578 1.8984 5.6797 0.47656z"/>
  <path d="m578.22 421.46c-38.359 16.574-73.879 27.941-107.5 34.57 9.9453-63.934 1.4219-118.87-25.102-163.86l33.152-33.152-5.6836-4.2617c-60.617-43.098-101.82-44.043-112.24-43.57-76.246-43.098-162.91-46.883-168.12-46.883h-7.1055l3.7891 24.152-24.152-3.7891v7.1055c0 5.2109 3.7891 91.875 46.883 168.12-0.47266 9.9453 0 51.621 43.57 112.24l4.2617 5.6836 33.152-33.152c44.988 26.992 99.926 35.047 163.86 25.102-6.6289 33.152-18.469 69.145-34.57 107.5l10.891 4.7344c17.523-40.727 29.836-78.613 36.465-114.13 35.52-6.6289 73.406-18.941 114.13-36.465zm-347.13-220.69c6.1562-6.1562 16.574-6.1562 22.258 0 2.8398 2.8398 4.7344 7.1055 4.7344 11.367s-1.4219 8.0508-4.7344 11.367c-2.8398 2.8398-7.1055 4.7344-11.367 4.7344-4.2617 0-8.0508-1.4219-11.367-4.7344-2.8398-2.8398-4.7344-7.1055-4.7344-11.367 0-4.2656 2.3711-8.0547 5.2109-11.367zm231.58 219.74c-2.3672 2.8398-5.6836 4.7344-8.9961 5.2109-2.8398 0.47266-5.2109-0.47266-7.5781-2.3672l-0.94531-0.94531-8.0508 8.5234 0.94531 0.94531c1.8945 1.8945 2.3672 3.7891 2.3672 5.6836 0 3.3164-2.3672 7.5781-6.1562 9.9453l7.1055 9.4727c6.1562-4.7344 10.418-11.84 10.891-18.941v-0.94531h2.8398c2.3672-0.47266 4.2617-0.94531 6.6289-1.8945-0.94531 7.5781-1.8945 15.156-2.8398 22.73-41.203 6.6289-78.141 6.1562-110.82-2.8398 2.8398-3.3164 4.7344-6.6289 5.6836-10.891 0.47266-1.8945 0.47266-3.7891 0.47266-5.6836 1.8945 0.47266 3.7891 0 5.6836-0.47266 8.9961-2.3672 16.574-9.9453 18.941-18.941 0.47266-1.8945 0.47266-3.7891 0.47266-5.2109 1.8945 0 3.7891 0 5.2109-0.47266 8.9961-2.3672 16.574-9.9453 18.941-18.941 0.47266-1.8945 0.47266-3.7891 0.47266-5.2109 1.8945 0 3.7891 0 5.2109-0.47266 8.9961-2.3672 16.574-9.9453 18.941-18.941 0.47266-1.8945 0.47266-3.7891 0.47266-5.2109 1.4219 0 2.8398 0 4.2617-0.47266 8.5234-1.4219 16.102-8.0508 19.418-16.574l-10.891-4.2617c-1.8945 4.2617-6.1562 8.0508-10.418 8.9961-2.8398 0.47266-5.6836 0-7.5781-2.3672-0.47266-0.47266-0.47266-0.47266-0.94531-0.94531l-8.5234 8.5234 0.94531 0.94531c2.3672 2.3672 2.8398 5.2109 1.8945 8.5234-1.4219 4.7344-5.6836 8.9961-10.418 10.418-3.3164 0.94531-6.1562 0-8.5234-2.3672l-0.94531-0.94531-8.5234 8.5234 0.94531 0.94531c2.3672 2.3672 2.8398 5.2109 2.3672 8.5234-1.4219 4.7344-5.6836 8.9961-10.418 10.418-3.3164 0.94531-6.1562 0-8.5234-2.3672l-0.94531-0.94531-8.5234 8.5234c0.47266 0.47266 0.47266 0.47266 0.94531 0.94531 2.3672 2.3672 2.8398 5.2109 2.3672 8.5234-1.4219 4.7344-5.6836 8.9961-10.418 10.418-3.3164 0.94531-6.1562 0-8.5234-2.3672 0 0-0.47266-0.47266-0.47266-0.47266l-8.5234 8.5234 0.47266 0.47266c2.8398 2.8398 2.8398 6.6289 2.3672 8.9961-0.94531 4.2617-4.2617 7.5781-8.5234 9.4727-7.1055-2.3672-14.207-5.2109-21.312-8.5234 2.8398-3.7891 4.7344-8.5234 5.2109-12.785v-1.8945c1.8945 0 3.7891 0 5.6836-0.94531 8.5234-2.3672 16.102-9.4727 18.469-18.469 0.47266-1.8945 0.94531-3.7891 0.94531-5.6836 1.8945 0 3.7891 0 5.6836-0.47266 8.5234-2.3672 16.102-9.4727 18.469-18.469 0.47266-1.8945 0.94531-3.7891 0.94531-5.6836 1.8945 0 3.7891 0 5.6836-0.94531 8.5234-2.3672 16.102-9.4727 18.469-18.469 0.47266-1.8945 0.94531-3.7891 0.94531-5.6836 1.8945 0 3.7891 0 5.6836-0.94531 8.5234-2.3672 16.102-9.4727 18.469-18.469 0.47266-1.8945 0.94531-3.7891 0.94531-5.6836 0.94531 0 2.3672 0 3.3164-0.47266 7.5781-0.94531 15.156-6.6289 18.941-14.207l-10.418-5.2109c-1.8945 3.7891-6.1562 7.1055-9.9453 7.5781-2.8398 0.47266-5.6836-0.47266-8.0508-2.8398 0 0-0.47266-0.47266-0.47266-0.47266l-8.5234 8.5234 0.47266 0.47266c2.3672 2.3672 3.3164 5.6836 2.3672 8.9961-1.4219 4.7344-5.2109 8.5234-9.9453 9.9453-3.3164 0.94531-6.1562 0-8.9961-2.3672l-0.47266-0.47266-8.5234 8.5234 0.47266 0.47266c2.3672 2.3672 3.3164 5.6836 2.3672 8.9961-1.4219 4.7344-5.2109 8.5234-9.9453 9.9453-3.3164 0.94531-6.1562 0-8.9961-2.3672l-0.47266-0.47266-8.5234 8.5234s0.47266 0.47266 0.47266 0.47266c2.3672 2.3672 3.3164 5.6836 2.3672 8.9961-1.4219 4.7344-5.2109 8.5234-9.9453 9.9453-3.3164 0.94531-6.1562 0-8.9961-2.3672 0 0-0.47266-0.47266-0.47266-0.47266l-8.5234 8.5234 0.47266 0.47266c2.3672 2.3672 3.3164 5.6836 2.3672 8.9961-1.4219 4.7344-5.2109 8.5234-9.9453 9.9453-3.3164 0.94531-6.1562 0-8.9961-2.3672l-0.47266-0.47266-8.5234 8.5234 0.47266 0.47266c2.3672 2.3672 2.8398 5.6836 2.8398 7.5781 0 2.8398-1.8945 5.6836-3.7891 8.0508-2.3672-1.4219-5.2109-2.8398-7.5781-4.7344-52.566-33.625-81.457-89.508-97.559-139.23 20.363-3.7891 76.719-21.785 96.609-97.559 12.785 4.2617 26.52 8.9961 39.781 15.156-0.94531 3.7891-3.3164 6.6289-7.1055 8.0508-4.2617 1.4219-8.9961 0.94531-12.312-2.3672l-8.0508 8.5234c2.8398 2.8398 3.7891 6.1562 2.8398 9.9453-1.4219 4.2617-5.2109 8.5234-9.4727 9.4727-3.7891 0.94531-6.6289 0-9.4727-2.8398l-8.5234 8.5234c2.8398 2.8398 3.7891 6.1562 2.8398 9.4727-1.4219 4.2617-5.2109 8.5234-9.4727 9.4727-3.7891 0.94531-6.6289 0-9.4727-2.8398l-8.5234 8.5234c2.8398 2.8398 3.7891 6.1562 2.8398 9.4727-1.4219 4.2617-5.2109 8.5234-9.4727 9.4727-3.7891 0.94531-6.6289 0-9.4727-2.8398l-8.5234 8.5234c4.7344 4.7344 3.3164 9.4727 1.8945 12.312-2.8398 5.2109-8.0508 8.0508-12.785 7.1055l-1.8945 11.84c1.4219 0 2.3672 0.47266 3.7891 0.47266 8.5234 0 17.523-5.2109 21.785-13.734 1.8945-3.7891 2.8398-7.5781 2.8398-10.891 1.8945 0 4.2617 0 6.1562-0.94531 8.5234-2.3672 15.629-9.4727 17.996-17.996 0.47266-1.8945 0.94531-4.2617 0.94531-6.1562 1.8945 0 4.2617 0 6.1562-0.94531 8.5234-2.3672 15.629-9.4727 17.996-17.996 0.47266-1.8945 0.94531-4.2617 0.94531-6.1562 1.8945 0 4.2617 0 6.1562-0.94531 8.5234-2.3672 15.629-9.4727 17.996-17.996 0.47266-1.8945 0.94531-4.2617 0.94531-6.1562 3.3164 0 6.6289-0.47266 9.4727-1.4219 6.6289-2.3672 11.84-7.5781 13.734-13.734 26.992 13.734 53.516 32.203 74.352 57.305l-1.4219-0.94531c-1.8945 3.7891-5.6836 6.6289-9.4727 7.1055-2.3672 0.47266-5.6836 0-8.9961-2.8398l-8.5234 8.5234c2.8398 2.8398 3.7891 6.1562 2.8398 9.4727-1.4219 4.2617-5.2109 8.5234-9.4727 9.4727-3.7891 0.94531-6.6289 0-9.4727-2.8398l-8.5234 8.5234c2.8398 2.8398 3.7891 6.1562 2.8398 9.4727-1.4219 4.2617-5.2109 8.5234-9.4727 9.4727-3.7891 0.94531-6.6289 0-9.4727-2.8398l-8.5234 8.5234c2.8398 2.8398 3.7891 6.1562 2.8398 9.4727-1.4219 4.2617-5.2109 8.5234-9.4727 9.4727-3.7891 0.94531-7.1055 0-9.9453-2.8398l-8.5234 8.5234c4.2617 4.2617 9.9453 6.6289 15.629 6.6289 1.8945 0 3.7891-0.47266 5.6836-0.94531 8.5234-2.3672 15.629-9.4727 17.996-17.996 0.47266-1.8945 0.94531-4.2617 0.94531-6.1562 1.8945 0 4.2617 0 6.1562-0.94531 8.5234-2.3672 15.629-9.4727 17.996-17.996 0.47266-1.8945 0.94531-4.2617 0.94531-6.1562 1.8945 0 4.2617 0 6.1562-0.94531 8.5234-2.3672 15.629-9.4727 17.996-17.996 0.47266-1.8945 0.94531-4.2617 0.94531-6.1562 1.4219 0 2.8398 0 4.2617-0.47266 6.1562-0.94531 11.84-4.7344 15.629-9.9453 2.8398 3.7891 5.2109 7.5781 8.0508 11.367 19.91 36.895 30.328 79.043 27.488 127.82z"/>
 </g>
</svg>
