<?xml version="1.0" encoding="UTF-8"?>
<svg width="752pt" height="752pt" version="1.1" viewBox="0 0 752 752" xmlns="http://www.w3.org/2000/svg">
 <g>
  <path d="m399.18 302.04c0 12.809-10.383 23.184-23.184 23.184s-23.184-10.375-23.184-23.184c0-12.801 10.383-23.184 23.184-23.184 12.801 0.007813 23.184 10.383 23.184 23.184z"/>
  <path d="m386.25 530.37v-35.242h26.02c26.309 0 47.641-21.324 47.641-47.637v-21.699h-36.27c-15.168 0-28.668 7.0977-37.391 18.141v-46.855c6.1406-1.4297 11.891-4.125 16.758-7.9414 6.3086-4.9414 10.914-11.469 13.574-19.156 7.9844 1.5391 15.941 0.81641 23.371-2.1719 8.8438-3.5625 16.453-10.25 21.406-18.828 4.9531-8.5742 6.9453-18.508 5.6016-27.949-1.1289-7.9258-4.4727-15.184-9.8086-21.332 5.3242-6.1484 8.6758-13.398 9.8086-21.332 1.3398-9.4414-0.64844-19.367-5.6016-27.949-4.9531-8.582-12.562-15.27-21.406-18.828-7.4297-2.9961-15.387-3.7148-23.371-2.1797-2.6602-7.6875-7.2656-14.215-13.574-19.156-7.5039-5.8672-17.094-9.1094-27.004-9.1094s-19.496 3.2422-27.008 9.1211c-6.3086 4.9414-10.914 11.469-13.574 19.156-7.9844-1.5391-15.941-0.81641-23.371 2.1797-8.8438 3.5625-16.453 10.242-21.406 18.828-4.9531 8.582-6.9453 18.508-5.6016 27.949 1.1289 7.9258 4.4727 15.184 9.8086 21.324-5.332 6.1484-8.6758 13.398-9.8086 21.332-1.3398 9.4414 0.64844 19.375 5.6016 27.949 4.9531 8.582 12.562 15.266 21.406 18.828 7.4297 2.9961 15.387 3.7148 23.371 2.1719 2.6602 7.6875 7.2656 14.215 13.574 19.156 4.8672 3.8164 10.617 6.5117 16.758 7.9414v46.855c-8.7227-11.047-22.223-18.141-37.391-18.141h-36.27v21.699c0 26.309 21.324 47.637 47.641 47.637h26.02v35.242l-164.61-0.011719v20.504h349.72v-20.496zm-53.922-228.33c0-24.078 19.598-43.672 43.68-43.672 24.078 0 43.68 19.59 43.68 43.672 0 24.086-19.59 43.68-43.68 43.68s-43.68-19.594-43.68-43.68z"/>
 </g>
</svg>
