<?xml version="1.0" encoding="UTF-8"?>
<svg width="752pt" height="752pt" version="1.1" viewBox="0 0 752 752" xmlns="http://www.w3.org/2000/svg">
 <path d="m531.34 437.57-0.94531-174.75c0-8.5234-5.2109-15.629-12.785-18.469-2.3672-0.94531-4.7344-1.4219-7.5781-1.4219-10.891 0-19.891 8.9961-19.891 20.363l0.47266 83.824c0 2.8398-0.94531 5.2109-2.8398 7.1055s-4.2617 2.8398-7.1055 2.8398c-1.4219 0-2.3672-0.47266-3.7891-0.47266-3.7891-1.4219-6.1562-5.2109-6.6289-9.4727l-0.94531-144.44c0-8.5234-5.2109-15.629-12.785-18.469-2.3672-0.94531-4.7344-1.4219-7.5781-1.4219-10.891 0-19.891 8.9961-19.891 20.363l0.94141 144.44c0 2.8398-0.94531 5.2109-2.8398 7.1055-1.8945 1.8945-4.2617 2.8398-7.1055 2.8398-1.4219 0-2.3672-0.47266-3.7891-0.47266-3.7891-1.4219-6.1562-5.2109-6.6289-9.4727l-0.94531-164.8c0-8.5234-5.2109-15.629-12.785-18.469-2.3672-0.94531-4.7344-1.4219-7.5781-1.4219-11.367 0-19.891 8.9961-19.891 20.363l0.94531 164.8c0 2.8398-0.94531 5.2109-2.8398 7.1055-1.8945 1.8945-4.2617 2.8398-7.1055 2.8398-1.4219 0-2.3672 0-3.7891-0.47266-3.7891-1.4219-6.1562-5.2109-6.6289-9.4727l-0.94531-144.44c0-8.5234-5.2109-15.629-12.785-18.469-2.3672-0.94531-4.7344-1.4219-7.5781-1.4219-11.367 0-19.891 8.9961-19.891 20.363l0.94531 154.86 0.47266 51.621c0 1.4219-0.94531 2.8398-2.3672 3.3164-0.94531 0.47266-1.8945 0.47266-2.3672 0-0.47266-0.47266-0.94531-0.47266-1.4219-1.4219l-36.465-48.305c-2.8398-3.7891-6.6289-6.6289-10.891-8.0508-2.8398-0.94531-6.1562-1.8945-9.4727-1.8945-5.2109 0-10.418 1.8945-15.156 5.2109-10.891 8.5234-13.262 24.152-4.7344 35.52l115.08 179.96c3.7891 5.6836 8.9961 10.418 15.629 12.785 3.7891 1.4219 8.0508 2.3672 11.84 2.3672l98.504-0.47266c14.68 0 27.469-9.9453 31.258-24.152z"/>
</svg>
