<?xml version="1.0" encoding="UTF-8"?>
<svg width="752pt" height="752pt" version="1.1" viewBox="0 0 752 752" xmlns="http://www.w3.org/2000/svg">
 <path d="m522.81 200.78c-14.77-0.23438-32.543 8.8633-47.359 23.68-24.254 21.828-48.078 46.301-71.039 71.039l-189.43-37.887-14.207 28.414 142.07 71.039-80.508 94.715c-18.461-6.0703-47.359-12.98-47.359 9.4727 0 4.4375 1.1094 9.0078 4.7344 14.207l56.836 56.828c5.1992 3.625 9.7695 4.7344 14.207 4.7344 22.453 0 15.543-28.898 9.4727-47.359l94.715-80.508 71.039 142.07 28.414-14.207-37.887-189.43c24.738-22.961 49.211-46.785 71.039-71.039 14.816-14.816 23.914-32.59 23.68-47.359-0.125-7.957-2.6367-15.531-7.7305-20.684-5.1523-5.0938-12.727-7.6055-20.684-7.7305z"/>
</svg>
