<?xml version="1.0" encoding="UTF-8"?>
<svg width="752pt" height="752pt" version="1.1" viewBox="0 0 752 752" xmlns="http://www.w3.org/2000/svg">
 <g>
  <path d="m170.94 419.1c9.4727 10.418 25.574 16.102 47.359 16.102h299.77c33.152 0 53.516-2.3672 82.875-16.102-2.3672-13.262-20.363-25.102-115.55-45.938-5.6836-1.4219-11.84-3.3164-17.523-5.2109l0.47266-0.94531c3.7891-5.6836 1.8945-13.734-3.7891-17.523-5.6836-3.7891-13.734-1.8945-17.523 3.7891l-2.8398 4.2617c-5.2109-2.3672-9.9453-5.2109-15.156-8.0508l2.8398-4.2617c3.7891-5.6836 1.8945-13.734-3.7891-17.523-5.6836-3.7891-13.734-1.8945-17.523 3.7891l-2.8398 4.2617c-4.7344-3.3164-9.4727-6.1562-14.207-9.4727l1.8945-2.8398c3.7891-5.6836 1.8945-13.734-3.7891-17.523-5.6836-3.7891-13.734-1.8945-17.523 3.7891l-0.94531 1.8945c-28.887-20.836-53.043-39.781-65.828-41.676-11.84 14.68 1.8945 44.516 1.8945 44.516s-16.102 16.102-50.199 16.102c-34.098 0-40.254-25.102-58.25-33.625-11.359 2.8438-33.617 52.098-39.773 93.297-0.47266 4.2656 0 17.996 9.9453 28.891zm224.95-20.363 12.312-18.469c2.8398-4.2617 8.9961-5.6836 13.734-2.8398 4.7344 2.8398 5.6836 8.9961 2.8398 13.734l-12.312 18.469c-1.8945 2.8398-5.2109 4.2617-8.0508 4.2617-1.8945 0-3.7891-0.47266-5.6836-1.8945-4.7344-2.8438-6.1523-9-2.8398-13.262zm-21.785-41.676c2.8398-4.2617 8.9961-5.6836 13.734-2.8398 4.7344 2.8398 5.6836 8.9961 2.8398 13.734l-27.941 41.676c-2.3633 2.8398-5.6797 4.2578-8.5234 4.2578-1.8945 0-3.7891-0.47266-5.6836-1.8945-4.7344-2.8398-5.6836-8.9961-2.8398-13.734zm-77.664 41.676 43.57-64.406c2.8398-4.2617 8.9961-5.6836 13.734-2.8398 4.7344 2.8398 5.6836 8.9961 2.8398 13.734l-43.57 64.406c-1.8945 2.8398-5.2109 4.2617-8.0508 4.2617-1.8945 0-3.7891-0.47266-5.6836-1.8945-4.7344-2.8438-6.1562-9-2.8398-13.262z"/>
  <path d="m518.07 450.36h-299.77c-26.52 0-45.938-7.1055-58.723-21.312-2.3672-2.8398-4.2617-5.6836-6.1562-8.5234-1.8945 4.7344-2.3672 10.418-2.3672 22.258 0 21.312 17.996 38.359 39.309 38.359h306.88c60.145 0 99.453-23.68 102.29-44.988-27.945 11.836-49.73 14.207-81.461 14.207z"/>
 </g>
</svg>
