<?xml version="1.0" encoding="UTF-8"?>
<svg width="752pt" height="752pt" version="1.1" viewBox="0 0 752 752" xmlns="http://www.w3.org/2000/svg">
 <path d="m311.98 442.26c7.0742 13.527 18.496 22.953 34.422 28.121v120.21h-44.398c-4.0859 0-7.3984 3.3125-7.3984 7.3984 0 4.0859 3.3125 7.3984 7.3984 7.3984h148c4.082 0 7.3984-3.3125 7.3984-7.3984 0-4.0859-3.3164-7.3984-7.3984-7.3984h-44.398v-120.73c12.031-5.3281 22.02-14.754 29.82-27.262h16.707c0.33984 0 0.67969-0.027344 1.0078-0.074218 19.27-2.6484 30.484-13.586 38.535-29.523h6.1289c0.72656 0 1.4336-0.10547 2.1289-0.3125 11.766-3.5352 21.992-14.117 27.367-27.082 5.0742-12.281 5.7539-26.488 0.074219-38.195 12.207-10.73 18.496-24.48 18.809-38.066 0.3125-13.809-5.4922-27.645-18.086-38.254 5.0469-15.539 4.1289-33.402-1.8789-49.859-13.289-36.406-50.879-65.68-100.34-46.398-66.879-65.547-183.25-8.5547-169.66 83.102-19.504 3.2539-34.809 17.18-43.273 34.867-9.5586 19.992-10.152 44.574 1.2148 63.027 3.625 5.8633 8.4492 11.176 14.621 15.527-2.5898 17.906 1.4805 32.543 9.3398 43.805 12.535 17.953 35.102 27.336 57.184 26.949zm120.82-29.258h-13.363c-1.9844 8.8203-7.9922 23.117-26.297 29.215-3.8789 1.3008-8.0664-0.80078-9.3555-4.6758-1.3008-3.8789 0.80078-8.0664 4.6758-9.3555 9.5312-3.1797 13.766-9.8984 15.645-15.184h-8.8789c-11.367 0-21.195-6.5859-27.363-16.754-2.9336-4.8242-5.0039-10.477-5.9961-16.457-6.2734 2.1602-15.02 4.0859-25.5 3.5664 3.8789 5.5508 10.184 12.031 19.773 15.23 3.0195 1.0039 5.0625 3.832 5.0625 7.0156v184.99h29.598v-125.8c0-3.1797 2.043-6.0078 5.0625-7.0156 17.699-5.9023 29.746-22.566 36.938-44.781zm-103.06 29.406c4.3086 5.2383 9.8711 9.2812 16.664 12.18v-12.047z" fill-rule="evenodd"/>
</svg>
